<svg version="1.1" viewBox="0.0 0.0 664.2388451443569 550.5275590551181" fill="none" stroke="none" stroke-linecap="square" stroke-miterlimit="10" xmlns:xlink="http://www.w3.org/1999/xlink" xmlns="http://www.w3.org/2000/svg"><clipPath id="p.0"><path d="m0 0l664.23883 0l0 550.5276l-664.23883 0l0 -550.5276z" clip-rule="nonzero"/></clipPath><g clip-path="url(#p.0)"><path fill="#000000" fill-opacity="0.0" d="m0 0l664.23883 0l0 550.5276l-664.23883 0z" fill-rule="evenodd"/><path fill="#006747" d="m136.76509 114.09899l97.6693 0l0 85.95275l-97.6693 0z" fill-rule="evenodd"/><path stroke="#666666" stroke-width="4.0" stroke-linejoin="round" stroke-linecap="butt" d="m136.76509 114.09899l97.6693 0l0 85.95275l-97.6693 0z" fill-rule="evenodd"/><path fill="#006747" d="m234.44226 114.09899l97.66928 0l0 85.95275l-97.66928 0z" fill-rule="evenodd"/><path stroke="#666666" stroke-width="4.0" stroke-linejoin="round" stroke-linecap="butt" d="m234.44226 114.09899l97.66928 0l0 85.95275l-97.66928 0z" fill-rule="evenodd"/><path fill="#006747" d="m136.76509 200.05385l97.6693 0l0 85.95274l-97.6693 0z" fill-rule="evenodd"/><path stroke="#666666" stroke-width="4.0" stroke-linejoin="round" stroke-linecap="butt" d="m136.76509 200.05385l97.6693 0l0 85.95274l-97.6693 0z" fill-rule="evenodd"/><path fill="#cfc493" d="m527.47375 436.4297l0 -85.95273l-97.66928 0l0 85.95273z" fill-rule="evenodd"/><path stroke="#666666" stroke-width="4.0" stroke-linejoin="round" stroke-linecap="butt" d="m527.47375 436.4297l0 -85.95273l-97.66928 0l0 85.95273z" fill-rule="evenodd"/><path fill="#cfc493" d="m527.47375 350.47485l0 -85.95276l-97.66928 0l0 85.95276z" fill-rule="evenodd"/><path stroke="#666666" stroke-width="4.0" stroke-linejoin="round" stroke-linecap="butt" d="m527.47375 350.47485l0 -85.95276l-97.66928 0l0 85.95276z" fill-rule="evenodd"/><path fill="#cfc493" d="m429.7966 436.4297l0 -85.95273l-97.66931 0l0 85.95273z" fill-rule="evenodd"/><path stroke="#666666" stroke-width="4.0" stroke-linejoin="round" stroke-linecap="butt" d="m429.7966 436.4297l0 -85.95273l-97.66931 0l0 85.95273z" fill-rule="evenodd"/></g></svg>